<svg xmlns="http://www.w3.org/2000/svg" xmlns:xlink="http://www.w3.org/1999/xlink" xml:space="preserve" width="80" height="80" version="1.0" viewBox="0 0 2116.66 2116.66" enable-background="new 0 0 64 64" id="svg928" shape-rendering="geometricPrecision" text-rendering="geometricPrecision" image-rendering="optimizeQuality" fill-rule="evenodd" clip-rule="evenodd"><defs id="defs904"><radialGradient id="id0" gradientUnits="userSpaceOnUse" gradientTransform="matrix(1.79559 .35131 -.35129 1.79556 73 -1063)" cx="417.01" cy="1152.6" r="532.63" fx="417.01" fy="1152.6"><stop offset="0" id="stop897" stop-opacity="1" stop-color="#fff"/><stop offset="1" id="stop899" stop-opacity="1" stop-color="#000"/></radialGradient><radialGradient id="id1" gradientUnits="userSpaceOnUse" gradientTransform="matrix(1.86776 .32972 -.42844 2.24856 160 -1569)" xlink:href="#id0" cx="385.88" cy="1155.05" r="430.7" fx="385.88" fy="1155.05"/><radialGradient id="id2" gradientUnits="userSpaceOnUse" gradientTransform="matrix(2.6364 2.62302 -.95892 2.55371 304 -865)" xlink:href="#id0" cx="70.46" cy="437.67" r="519.57" fx="70.46" fy="437.67"/><radialGradient xlink:href="#id0" id="radialGradient1495" gradientUnits="userSpaceOnUse" gradientTransform="matrix(1.79559 .35131 -.35129 1.79556 73 -1063)" cx="417.01" cy="1152.6" fx="417.01" fy="1152.6" r="532.63"/><filter height="1.422" y="-.211" width="2.319" x="-.66" id="filter4419" color-interpolation-filters="sRGB"><feGaussianBlur id="feGaussianBlur4421" stdDeviation="75.74"/></filter><filter height="1.417" y="-.208" width="8.02" x="-3.51" id="filter4423" color-interpolation-filters="sRGB"><feGaussianBlur id="feGaussianBlur4425" stdDeviation="75.74"/></filter><style type="text/css" id="style895">.str0,.str1{stroke-width:16.93;stroke-miterlimit:22.9256}.str1{stroke:#000}.str0{stroke:#434242}.fil3{fill:none}</style></defs><path id="path908" d="M763.37 888.02c158.9 38.96 275.54 202.19 275.54 407.59 0 205.41-116.64 388.2-275.54 453.81z" fill="url(#id1)" opacity=".999" filter="url(#filter4419)"/><path id="path910" d="M711.58 864.91c17.73 14.62 35.02 30.07 51.79 46.22v825.69c-16.77-2.22-34.06-5.71-51.79-10.51z" fill="url(#id2)" opacity=".999" filter="url(#filter4423)"/><path id="path912" d="M592 1742.52c-246.83 0-446.91-200.08-446.91-446.91S345.17 848.7 592 848.7c41.43 0 81.52 5.67 119.58 16.21v861.4c-38.06 10.54-78.15 16.21-119.58 16.21z" fill="url(#radialGradient1495)"/><path id="polyline914" class="fil3 str0" d="M1919.8 319.52v1125.07L711.58 1783.26"/><path id="line916" class="fil3 str0" d="M1919.8 1444.59l51.78 13.87"/><g id="g925" fill="#000" fill-opacity=".096"><path id="polygon922" fill="#000" fill-opacity=".096" d="M711.58 1783.26l51.79 13.88 1208.21-338.67V333.4l-51.78-13.88L711.58 658.19z"/><path class="fil3 str1" id="1" fill="#000" fill-opacity=".096" d="M711.58 1783.26l51.79 13.88 1208.21-338.67V333.4l-51.78-13.88L711.58 658.19z"/></g><path id="line918" class="fil3 str1" d="M711.59 658.19l51.78 13.88"/><path id="polyline920" class="fil3 str1" d="M763.37 1797.14V672.07L1971.58 333.4"/></svg>