<svg xmlns="http://www.w3.org/2000/svg" viewBox="0 0 512.006 512.006" fill="#00bfa5"><path d="M370.037 296.152a167.88 167.88 0 01-36.693-9.122c-13.107-4.898-28.006-1.741-37.999 8.115l-12.774 12.74a211.005 211.005 0 01-70.306-70.144l12.792-12.766c9.847-9.95 13.03-24.832 8.107-37.905a167.073 167.073 0 01-9.156-36.719c-2.517-17.783-17.877-31.317-35.908-30.899h-41.19c-1.075 0-2.15.051-3.208.154-9.574.853-18.236 5.393-24.397 12.757-6.161 7.381-9.079 16.708-8.201 26.402 4.625 43.477 19.661 85.854 43.435 122.487 21.606 33.937 50.995 63.275 84.941 84.804 36.582 23.671 78.839 38.682 122.377 43.401 1.109.102 2.219.145 3.362.145 9.617-.034 18.637-3.806 25.412-10.641 6.775-6.81 10.479-15.855 10.445-25.421v-41.01c.397-18.202-12.898-33.826-31.039-36.378zm13.986 36.301v41.139c.017 5.035-1.929 9.779-5.487 13.363a18.768 18.768 0 01-13.329 5.581c-.614 0-1.229-.026-1.673-.06-40.721-4.412-80.401-18.509-114.833-40.789-31.906-20.233-59.486-47.761-79.795-79.65-22.366-34.458-36.48-74.24-40.815-114.927-.461-5.018 1.075-9.916 4.309-13.781 3.243-3.874 7.799-6.255 12.851-6.707a18.178 18.178 0 011.664-.085h41.455c9.387 0 17.425 6.946 18.748 16.162a184.07 184.07 0 0010.086 40.397c2.577 6.869.913 14.677-4.224 19.857l-17.434 17.408a8.526 8.526 0 00-1.391 10.266 228.09 228.09 0 0085.581 85.41 8.539 8.539 0 0010.24-1.382l17.408-17.365c5.239-5.163 13.065-6.852 19.994-4.241a185.2 185.2 0 0040.371 10.044c9.515 1.34 16.512 9.574 16.273 19.157l.001.203z"/><path d="M256.006.003c-141.158 0-256 114.842-256 256 0 48.819 13.773 96.145 39.876 137.182L.526 500.534a8.5 8.5 0 001.886 8.875 8.523 8.523 0 006.127 2.594 8.62 8.62 0 002.697-.435l111.352-37.111c40.158 24.567 86.195 37.547 133.419 37.547 141.158 0 256-114.842 256-256S397.164.003 256.006.003zm.008 494.933c-45.346 0-89.523-12.817-127.744-37.06a8.59 8.59 0 00-4.574-1.323c-.913 0-1.818.145-2.697.444l-98.347 32.777 34.731-94.72a8.535 8.535 0 00-.887-7.637C30.708 348.36 17.081 302.92 17.081 256.004c0-131.746 107.187-238.933 238.933-238.933s238.933 107.187 238.933 238.933S387.76 494.936 256.014 494.936z"/></svg>