<svg xmlns="http://www.w3.org/2000/svg" xmlns:xlink="http://www.w3.org/1999/xlink" id="svg928" viewBox="0 0 2116.66 2116.66" version="1.0" height="80" width="80" xml:space="preserve" shape-rendering="geometricPrecision" text-rendering="geometricPrecision" image-rendering="optimizeQuality" fill-rule="evenodd" clip-rule="evenodd"><defs id="defs904"><radialGradient fy="1152.6" fx="417.01" r="532.63" cy="1152.6" cx="417.01" gradientTransform="matrix(1.79559 .35131 -.35129 1.79556 73 -1063)" gradientUnits="userSpaceOnUse" id="id0"><stop id="stop897" offset="0" stop-opacity="1" stop-color="#fff"/><stop id="stop899" offset="1" stop-opacity="1" stop-color="#000"/></radialGradient><radialGradient fy="1155.05" fx="385.88" r="430.7" cy="1155.05" cx="385.88" xlink:href="#id0" gradientTransform="matrix(1.86776 .32972 -.42844 2.24856 160 -1569)" gradientUnits="userSpaceOnUse" id="id1"/><radialGradient fy="437.67" fx="70.46" r="519.57" cy="437.67" cx="70.46" xlink:href="#id0" gradientTransform="matrix(2.6364 2.62302 -.95892 2.55371 304 -865)" gradientUnits="userSpaceOnUse" id="id2"/><radialGradient r="532.63" fy="1152.6" fx="417.01" cy="1152.6" cx="417.01" gradientTransform="matrix(1.79559 .35131 -.35129 1.79556 73 -1063)" gradientUnits="userSpaceOnUse" id="radialGradient1495" xlink:href="#id0"/><style id="style895" type="text/css">.str0,.str1{stroke-width:16.93;stroke-miterlimit:22.9256}.str1{stroke:#000}.str0{stroke:#434242}.fil3{fill:none}</style></defs><path d="M763.37 888.02c158.9 38.96 275.54 202.19 275.54 407.59 0 205.41-116.64 388.2-275.54 453.81z" id="path908" fill="url(#id1)"/><path d="M711.58 864.91c17.73 14.62 35.02 30.07 51.79 46.22v825.69c-16.77-2.22-34.06-5.71-51.79-10.51z" id="path910" fill="url(#id2)"/><path d="M592 1742.52c-246.83 0-446.91-200.08-446.91-446.91S345.17 848.7 592 848.7c41.43 0 81.52 5.67 119.58 16.21v861.4c-38.06 10.54-78.15 16.21-119.58 16.21z" id="path912" fill="url(#radialGradient1495)"/><path class="fil3 str0" id="polyline914" d="M1919.8 319.52v1125.07L711.58 1783.26"/><path class="fil3 str0" id="line916" d="M1919.8 1444.59l51.78 13.87"/><g id="g925" fill="#000" fill-opacity=".498"><path id="polygon922" fill="#000" fill-opacity=".498" d="M711.58 1783.26l51.79 13.88 1208.21-338.67V333.4l-51.78-13.88L711.58 658.19z"/><path id="1" class="fil3 str1" fill="#000" fill-opacity=".498" d="M711.58 1783.26l51.79 13.88 1208.21-338.67V333.4l-51.78-13.88L711.58 658.19z"/></g><path class="fil3 str1" id="line918" d="M711.59 658.19l51.78 13.88"/><path class="fil3 str1" id="polyline920" d="M763.37 1797.14V672.07L1971.58 333.4"/></svg>