<?xml version="1.0" encoding="UTF-8" standalone="no"?>
<svg
   xmlns:dc="http://purl.org/dc/elements/1.1/"
   xmlns:cc="http://creativecommons.org/ns#"
   xmlns:rdf="http://www.w3.org/1999/02/22-rdf-syntax-ns#"
   xmlns:svg="http://www.w3.org/2000/svg"
   xmlns="http://www.w3.org/2000/svg"
   xmlns:xlink="http://www.w3.org/1999/xlink"
   xml:space="preserve"
   width="21.1666mm"
   height="21.1666mm"
   version="1.0"
   style="shape-rendering:geometricPrecision; text-rendering:geometricPrecision; image-rendering:optimizeQuality; fill-rule:evenodd; clip-rule:evenodd"
   viewBox="0 0 2116.66 2116.66"
   enable-background="new 0 0 64 64"
   id="svg928"><metadata
   id="metadata932"><rdf:RDF><cc:Work
       rdf:about=""><dc:format>image/svg+xml</dc:format><dc:type
         rdf:resource="http://purl.org/dc/dcmitype/StillImage" /><dc:title></dc:title></cc:Work></rdf:RDF></metadata>
 <defs
   id="defs904">
  <style
   type="text/css"
   id="style895">
   <![CDATA[
    .str1 {stroke:black;stroke-width:16.93;stroke-miterlimit:22.9256}
    .str0 {stroke:#434242;stroke-width:16.93;stroke-miterlimit:22.9256}
    .fil3 {fill:none}
    .fil4 {fill:black;fill-opacity:0.501961}
    .fil2 {fill:url(#id0)}
    .fil0 {fill:url(#id1)}
    .fil1 {fill:url(#id2)}
   ]]>
  </style>
  <radialGradient
   id="id0"
   gradientUnits="userSpaceOnUse"
   gradientTransform="matrix(1.79559 0.351313 -0.351286 1.79556 73 -1063)"
   cx="417.01"
   cy="1152.6"
   r="532.63"
   fx="417.01"
   fy="1152.6">
   <stop
   offset="0"
   style="stop-opacity:1; stop-color:white"
   id="stop897" />
   <stop
   offset="1"
   style="stop-opacity:1; stop-color:black"
   id="stop899" />
  </radialGradient>
  <radialGradient
   id="id1"
   gradientUnits="userSpaceOnUse"
   gradientTransform="matrix(1.86776,0.329725,-0.428438,2.24856,160,-1569)"
   xlink:href="#id0"
   cx="385.88"
   cy="1155.05"
   r="430.7"
   fx="385.88"
   fy="1155.05">
  </radialGradient>
  <radialGradient
   id="id2"
   gradientUnits="userSpaceOnUse"
   gradientTransform="matrix(2.6364,2.62302,-0.958919,2.55371,304,-865)"
   xlink:href="#id0"
   cx="70.46"
   cy="437.67"
   r="519.57"
   fx="70.46"
   fy="437.67">
  </radialGradient>
 <radialGradient
   xlink:href="#id0"
   id="radialGradient1495"
   gradientUnits="userSpaceOnUse"
   gradientTransform="matrix(1.79559,0.351313,-0.351286,1.79556,73,-1063)"
   cx="417.01"
   cy="1152.6"
   fx="417.01"
   fy="1152.6"
   r="532.63" />
  
  
  
  
  
  
  
  
  
  
 <filter
   height="1.4220478"
   y="-0.21102391"
   width="2.3194164"
   x="-0.65970821"
   id="filter4419"
   style="color-interpolation-filters:sRGB"><feGaussianBlur
     id="feGaussianBlur4421"
     stdDeviation="75.74" /></filter><filter
   height="1.4169605"
   y="-0.20848023"
   width="8.0197335"
   x="-3.5098668"
   id="filter4423"
   style="color-interpolation-filters:sRGB"><feGaussianBlur
     id="feGaussianBlur4425"
     stdDeviation="75.74" /></filter></defs>
 <g
   id="_2628948673200">
  </g><path
   style="fill:url(#id1);opacity:0.999;filter:url(#filter4419)"
   id="path908"
   d="m 763.37,888.02 c 158.9,38.96 275.54,202.19 275.54,407.59 0,205.41 -116.64,388.2 -275.54,453.81 z"
   class="fil0" /><path
   style="fill:url(#id2);opacity:0.999;filter:url(#filter4423)"
   id="path910"
   d="m 711.58,864.91 c 17.73,14.62 35.02,30.07 51.79,46.22 v 825.69 c -16.77,-2.22 -34.06,-5.71 -51.79,-10.51 z"
   class="fil1" /><path
   style="fill:url(#radialGradient1495)"
   id="path912"
   d="m 592,1742.52 c -246.83,0 -446.91,-200.08 -446.91,-446.91 0,-246.83 200.08,-446.91 446.91,-446.91 41.43,0 81.52,5.67 119.58,16.21 v 861.4 c -38.06,10.54 -78.15,16.21 -119.58,16.21 z"
   class="fil2" /><polyline
   id="polyline914"
   points="1919.8,319.52 1919.8,1444.59 711.58,1783.26 "
   class="fil3 str0" /><line
   id="line916"
   y2="1458.46"
   x2="1971.58"
   y1="1444.59"
   x1="1919.8"
   class="fil3 str0" /><g
   id="g925"
   style="fill:#000000;fill-opacity:0.09638554">
   <polygon
   id="polygon922"
   points="711.58,1783.26 763.37,1797.14 1971.58,1458.47 1971.58,333.4 1919.8,319.52 711.58,658.19 "
   class="fil4"
   style="fill:#000000;fill-opacity:0.09638554" />
   <polygon
   points="711.58,1783.26 763.37,1797.14 1971.58,1458.47 1971.58,333.4 1919.8,319.52 711.58,658.19 "
   class="fil3 str1"
   id="1"
   style="fill:#000000;fill-opacity:0.09638554" />
  </g><line
   id="line918"
   y2="672.07001"
   x2="763.37"
   y1="658.19"
   x1="711.59003"
   class="fil3 str1" /><polyline
   id="polyline920"
   points="763.37,1797.14 763.37,672.07 1971.58,333.4 "
   class="fil3 str1" />
</svg>
