<?xml version="1.0" encoding="UTF-8" standalone="no"?>
<svg
   xmlns:dc="http://purl.org/dc/elements/1.1/"
   xmlns:cc="http://creativecommons.org/ns#"
   xmlns:rdf="http://www.w3.org/1999/02/22-rdf-syntax-ns#"
   xmlns:svg="http://www.w3.org/2000/svg"
   xmlns="http://www.w3.org/2000/svg"
   xmlns:xlink="http://www.w3.org/1999/xlink"
   id="svg928"
   enable-background="new 0 0 64 64"
   viewBox="0 0 2116.66 2116.66"
   style="shape-rendering:geometricPrecision; text-rendering:geometricPrecision; image-rendering:optimizeQuality; fill-rule:evenodd; clip-rule:evenodd"
   version="1.0"
   height="21.1666mm"
   width="21.1666mm"
   xml:space="preserve"><metadata
   id="metadata932"><rdf:RDF><cc:Work
       rdf:about=""><dc:format>image/svg+xml</dc:format><dc:type
         rdf:resource="http://purl.org/dc/dcmitype/StillImage" /><dc:title></dc:title></cc:Work></rdf:RDF></metadata>
 <defs
   id="defs904">
  <style
   id="style895"
   type="text/css">
   <![CDATA[
    .str1 {stroke:black;stroke-width:16.93;stroke-miterlimit:22.9256}
    .str0 {stroke:#434242;stroke-width:16.93;stroke-miterlimit:22.9256}
    .fil3 {fill:none}
    .fil4 {fill:black;fill-opacity:0.501961}
    .fil2 {fill:url(#id0)}
    .fil0 {fill:url(#id1)}
    .fil1 {fill:url(#id2)}
   ]]>
  </style>
  <radialGradient
   fy="1152.6"
   fx="417.01"
   r="532.63"
   cy="1152.6"
   cx="417.01"
   gradientTransform="matrix(1.79559 0.351313 -0.351286 1.79556 73 -1063)"
   gradientUnits="userSpaceOnUse"
   id="id0">
   <stop
   id="stop897"
   style="stop-opacity:1; stop-color:white"
   offset="0" />
   <stop
   id="stop899"
   style="stop-opacity:1; stop-color:black"
   offset="1" />
  </radialGradient>
  <radialGradient
   fy="1155.05"
   fx="385.88"
   r="430.7"
   cy="1155.05"
   cx="385.88"
   xlink:href="#id0"
   gradientTransform="matrix(1.86776,0.329725,-0.428438,2.24856,160,-1569)"
   gradientUnits="userSpaceOnUse"
   id="id1">
  </radialGradient>
  <radialGradient
   fy="437.67"
   fx="70.46"
   r="519.57"
   cy="437.67"
   cx="70.46"
   xlink:href="#id0"
   gradientTransform="matrix(2.6364,2.62302,-0.958919,2.55371,304,-865)"
   gradientUnits="userSpaceOnUse"
   id="id2">
  </radialGradient>
 <radialGradient
   r="532.63"
   fy="1152.6"
   fx="417.01"
   cy="1152.6"
   cx="417.01"
   gradientTransform="matrix(1.79559,0.351313,-0.351286,1.79556,73,-1063)"
   gradientUnits="userSpaceOnUse"
   id="radialGradient1495"
   xlink:href="#id0" />
  
  
  
  
  
  
  
  
  
  
 </defs>
 <g
   id="_2628948673200">
  </g><path
   class="fil0"
   d="m 763.37,888.02 c 158.9,38.96 275.54,202.19 275.54,407.59 0,205.41 -116.64,388.2 -275.54,453.81 z"
   id="path908"
   style="fill:url(#id1)" /><path
   class="fil1"
   d="m 711.58,864.91 c 17.73,14.62 35.02,30.07 51.79,46.22 v 825.69 c -16.77,-2.22 -34.06,-5.71 -51.79,-10.51 z"
   id="path910"
   style="fill:url(#id2)" /><path
   class="fil2"
   d="m 592,1742.52 c -246.83,0 -446.91,-200.08 -446.91,-446.91 0,-246.83 200.08,-446.91 446.91,-446.91 41.43,0 81.52,5.67 119.58,16.21 v 861.4 c -38.06,10.54 -78.15,16.21 -119.58,16.21 z"
   id="path912"
   style="fill:url(#radialGradient1495)" /><polyline
   class="fil3 str0"
   points="1919.8,319.52 1919.8,1444.59 711.58,1783.26 "
   id="polyline914" /><line
   class="fil3 str0"
   x1="1919.8"
   y1="1444.59"
   x2="1971.58"
   y2="1458.46"
   id="line916" /><g
   style="fill:#000000;fill-opacity:0.49799201"
   id="g925">
   <polygon
   style="fill:#000000;fill-opacity:0.49799201"
   class="fil4"
   points="711.58,1783.26 763.37,1797.14 1971.58,1458.47 1971.58,333.4 1919.8,319.52 711.58,658.19 "
   id="polygon922" />
   <polygon
   style="fill:#000000;fill-opacity:0.49799201"
   id="1"
   class="fil3 str1"
   points="711.58,1783.26 763.37,1797.14 1971.58,1458.47 1971.58,333.4 1919.8,319.52 711.58,658.19 " />
  </g><line
   class="fil3 str1"
   x1="711.59003"
   y1="658.19"
   x2="763.37"
   y2="672.07001"
   id="line918" /><polyline
   class="fil3 str1"
   points="763.37,1797.14 763.37,672.07 1971.58,333.4 "
   id="polyline920" />
</svg>
