<?xml version="1.0" encoding="UTF-8" standalone="no"?>
<svg
   xmlns:dc="http://purl.org/dc/elements/1.1/"
   xmlns:cc="http://creativecommons.org/ns#"
   xmlns:rdf="http://www.w3.org/1999/02/22-rdf-syntax-ns#"
   xmlns:svg="http://www.w3.org/2000/svg"
   xmlns="http://www.w3.org/2000/svg"
   xmlns:xlink="http://www.w3.org/1999/xlink"
   xml:space="preserve"
   width="21.1666mm"
   height="21.1666mm"
   version="1.0"
   style="shape-rendering:geometricPrecision; text-rendering:geometricPrecision; image-rendering:optimizeQuality; fill-rule:evenodd; clip-rule:evenodd"
   viewBox="0 0 2116.66 2116.66"
   enable-background="new 0 0 64 64"
   id="svg941"><metadata
   id="metadata945"><rdf:RDF><cc:Work
       rdf:about=""><dc:format>image/svg+xml</dc:format><dc:type
         rdf:resource="http://purl.org/dc/dcmitype/StillImage" /><dc:title></dc:title></cc:Work></rdf:RDF></metadata>
 <defs
   id="defs917">
  <style
   type="text/css"
   id="style908">
   <![CDATA[
    .str1 {stroke:black;stroke-width:16.93;stroke-miterlimit:22.9256}
    .str0 {stroke:#434242;stroke-width:16.93;stroke-miterlimit:22.9256}
    .fil3 {fill:none}
    .fil4 {fill:#5C2E0E;fill-opacity:0.501961}
    .fil1 {fill:url(#id0)}
    .fil2 {fill:url(#id1)}
    .fil0 {fill:url(#id2)}
   ]]>
  </style>
  <radialGradient
   id="id0"
   gradientUnits="userSpaceOnUse"
   gradientTransform="matrix(2.6364 2.62302 -0.958919 2.55371 304 -865)"
   cx="70.46"
   cy="437.67"
   r="519.57"
   fx="70.46"
   fy="437.67">
   <stop
   offset="0"
   style="stop-opacity:1; stop-color:white"
   id="stop910" />
   <stop
   offset="1"
   style="stop-opacity:1; stop-color:black"
   id="stop912" />
  </radialGradient>
  <radialGradient
   id="id1"
   gradientUnits="userSpaceOnUse"
   gradientTransform="matrix(1.79556,0.351313,-0.35128,1.79556,73,-1063)"
   xlink:href="#id0"
   cx="417.01"
   cy="1152.6"
   r="532.63"
   fx="417.01"
   fy="1152.6">
  </radialGradient>
  <radialGradient
   id="id2"
   gradientUnits="userSpaceOnUse"
   gradientTransform="matrix(1.86776,0.329725,-0.428438,2.24856,160,-1569)"
   xlink:href="#id0"
   cx="385.88"
   cy="1155.05"
   r="430.7"
   fx="385.88"
   fy="1155.05">
  </radialGradient>
 <radialGradient
   xlink:href="#id0"
   id="radialGradient949"
   gradientUnits="userSpaceOnUse"
   gradientTransform="matrix(2.6364,2.62302,-0.958919,2.55371,304,-865)"
   cx="70.46"
   cy="437.67"
   fx="70.46"
   fy="437.67"
   r="519.57" />
  
  
  
  
  
  
  
  
  
  
 <filter
   height="1.4220478"
   y="-0.21102391"
   width="2.3194164"
   x="-0.65970821"
   id="filter3552"
   style="color-interpolation-filters:sRGB"><feGaussianBlur
     id="feGaussianBlur3554"
     stdDeviation="75.74" /></filter><filter
   height="1.4169605"
   y="-0.20848023"
   width="8.0197335"
   x="-3.5098668"
   id="filter3556"
   style="color-interpolation-filters:sRGB"><feGaussianBlur
     id="feGaussianBlur3558"
     stdDeviation="75.74" /></filter></defs>
 <g
   id="_2666141723488">
  </g><path
   style="fill:url(#id2);filter:url(#filter3552)"
   id="path921"
   d="m 763.37,888.02 c 158.89,38.96 275.54,202.19 275.54,407.59 0,205.41 -116.65,388.2 -275.54,453.81 z"
   class="fil0" /><path
   style="fill:url(#radialGradient949);filter:url(#filter3556)"
   id="path923"
   d="m 711.58,864.91 c 17.73,14.62 35.02,30.07 51.79,46.22 v 825.69 c -16.77,-2.22 -34.06,-5.71 -51.79,-10.51 z"
   class="fil1" /><path
   style="fill:url(#id1)"
   id="path925"
   d="m 592,1742.52 c -246.83,0 -446.92,-200.08 -446.92,-446.91 0,-246.83 200.09,-446.91 446.92,-446.91 41.42,0 81.52,5.67 119.58,16.21 v 861.4 c -38.06,10.54 -78.16,16.21 -119.58,16.21 z"
   class="fil2" /><polyline
   id="polyline927"
   points="1919.79,319.52 1919.79,1444.59 711.58,1783.26 "
   class="fil3 str0" /><line
   id="line929"
   y2="1458.46"
   x2="1971.58"
   y1="1444.59"
   x1="1919.8"
   class="fil3 str0" /><g
   id="g938"
   style="fill:#5c2e0e;fill-opacity:0.50196081">
   <polygon
   id="polygon935"
   points="1971.58,333.4 1919.79,319.52 711.58,658.19 711.58,1783.26 763.37,1797.14 1971.58,1458.47 "
   class="fil4"
   style="fill:#5c2e0e;fill-opacity:0.50196081" />
   <polygon
   points="1971.58,333.4 1919.79,319.52 711.58,658.19 711.58,1783.26 763.37,1797.14 1971.58,1458.47 "
   class="fil3 str1"
   id="1"
   style="fill:#5c2e0e;fill-opacity:0.50196081" />
  </g><line
   id="line931"
   y2="672.07001"
   x2="763.37"
   y1="658.19"
   x1="711.58002"
   class="fil3 str1" /><polyline
   id="polyline933"
   points="763.37,1797.14 763.37,672.07 1971.58,333.4 "
   class="fil3 str1" />
</svg>
